<mxfile host="Electron" modified="2024-08-22T08:41:19.270Z" agent="Mozilla/5.0 (Windows NT 10.0; Win64; x64) AppleWebKit/537.36 (KHTML, like Gecko) draw.io/22.1.21 Chrome/120.0.6099.109 Electron/28.1.0 Safari/537.36" etag="Lfzjx4FMeXPG-so7_VHM" version="22.1.21" type="device" pages="2">
  <diagram name="Page-1" id="vAUNEOZuLqp_b225Agnq">
    <mxGraphModel dx="2625" dy="2673" grid="1" gridSize="10" guides="1" tooltips="1" connect="1" arrows="1" fold="1" page="1" pageScale="1" pageWidth="850" pageHeight="1100" math="0" shadow="0">
      <root>
        <mxCell id="0" />
        <mxCell id="1" parent="0" />
        <mxCell id="AwLyOz3VwpFllKXNgGai-5" style="edgeStyle=orthogonalEdgeStyle;rounded=0;orthogonalLoop=1;jettySize=auto;html=1;curved=1;" parent="1" source="AwLyOz3VwpFllKXNgGai-1" target="AwLyOz3VwpFllKXNgGai-4" edge="1">
          <mxGeometry relative="1" as="geometry" />
        </mxCell>
        <mxCell id="AwLyOz3VwpFllKXNgGai-8" value="if user isn&#39;t logged in&amp;nbsp;&lt;br&gt;&lt;b&gt;we check it via DataStore&lt;/b&gt;" style="edgeLabel;html=1;align=center;verticalAlign=middle;resizable=0;points=[];" parent="AwLyOz3VwpFllKXNgGai-5" vertex="1" connectable="0">
          <mxGeometry x="-0.0745" y="2" relative="1" as="geometry">
            <mxPoint x="-117" y="-15" as="offset" />
          </mxGeometry>
        </mxCell>
        <mxCell id="AwLyOz3VwpFllKXNgGai-7" style="edgeStyle=orthogonalEdgeStyle;rounded=0;orthogonalLoop=1;jettySize=auto;html=1;curved=1;" parent="1" source="AwLyOz3VwpFllKXNgGai-1" target="AwLyOz3VwpFllKXNgGai-6" edge="1">
          <mxGeometry relative="1" as="geometry" />
        </mxCell>
        <mxCell id="AwLyOz3VwpFllKXNgGai-1" value="&lt;span style=&quot;font-size: 20px;&quot;&gt;Splash Screen&lt;/span&gt;" style="rounded=0;whiteSpace=wrap;html=1;fillColor=#f5f5f5;fontColor=#333333;strokeColor=#666666;" parent="1" vertex="1">
          <mxGeometry x="230" y="90" width="180" height="250" as="geometry" />
        </mxCell>
        <mxCell id="AwLyOz3VwpFllKXNgGai-3" style="edgeStyle=orthogonalEdgeStyle;rounded=0;orthogonalLoop=1;jettySize=auto;html=1;exitX=1;exitY=0.5;exitDx=0;exitDy=0;curved=1;" parent="1" source="AwLyOz3VwpFllKXNgGai-2" target="AwLyOz3VwpFllKXNgGai-1" edge="1">
          <mxGeometry relative="1" as="geometry" />
        </mxCell>
        <mxCell id="AwLyOz3VwpFllKXNgGai-2" value="user opens app" style="ellipse;whiteSpace=wrap;html=1;aspect=fixed;fillColor=#f8cecc;strokeColor=#b85450;" parent="1" vertex="1">
          <mxGeometry x="20" y="160" width="80" height="80" as="geometry" />
        </mxCell>
        <mxCell id="AwLyOz3VwpFllKXNgGai-10" style="edgeStyle=orthogonalEdgeStyle;rounded=0;orthogonalLoop=1;jettySize=auto;html=1;curved=1;" parent="1" source="AwLyOz3VwpFllKXNgGai-4" target="AwLyOz3VwpFllKXNgGai-9" edge="1">
          <mxGeometry relative="1" as="geometry" />
        </mxCell>
        <mxCell id="AwLyOz3VwpFllKXNgGai-11" value="when user clicks create new account" style="edgeLabel;html=1;align=center;verticalAlign=middle;resizable=0;points=[];" parent="AwLyOz3VwpFllKXNgGai-10" vertex="1" connectable="0">
          <mxGeometry x="0.1225" relative="1" as="geometry">
            <mxPoint as="offset" />
          </mxGeometry>
        </mxCell>
        <mxCell id="AwLyOz3VwpFllKXNgGai-13" style="edgeStyle=orthogonalEdgeStyle;rounded=0;orthogonalLoop=1;jettySize=auto;html=1;curved=1;" parent="1" source="AwLyOz3VwpFllKXNgGai-4" target="AwLyOz3VwpFllKXNgGai-12" edge="1">
          <mxGeometry relative="1" as="geometry" />
        </mxCell>
        <mxCell id="AwLyOz3VwpFllKXNgGai-37" style="edgeStyle=orthogonalEdgeStyle;rounded=0;orthogonalLoop=1;jettySize=auto;html=1;" parent="1" source="AwLyOz3VwpFllKXNgGai-4" target="AwLyOz3VwpFllKXNgGai-25" edge="1">
          <mxGeometry relative="1" as="geometry" />
        </mxCell>
        <mxCell id="AwLyOz3VwpFllKXNgGai-4" value="&lt;span style=&quot;font-size: 20px;&quot;&gt;Login Screen&lt;/span&gt;" style="rounded=0;whiteSpace=wrap;html=1;fillColor=#f5f5f5;fontColor=#333333;strokeColor=#666666;" parent="1" vertex="1">
          <mxGeometry x="890" y="-560" width="180" height="250" as="geometry" />
        </mxCell>
        <mxCell id="AwLyOz3VwpFllKXNgGai-52" value="" style="edgeStyle=orthogonalEdgeStyle;rounded=0;orthogonalLoop=1;jettySize=auto;html=1;" parent="1" source="AwLyOz3VwpFllKXNgGai-6" target="AwLyOz3VwpFllKXNgGai-51" edge="1">
          <mxGeometry relative="1" as="geometry" />
        </mxCell>
        <mxCell id="AwLyOz3VwpFllKXNgGai-55" style="edgeStyle=orthogonalEdgeStyle;rounded=0;orthogonalLoop=1;jettySize=auto;html=1;" parent="1" source="AwLyOz3VwpFllKXNgGai-6" target="AwLyOz3VwpFllKXNgGai-53" edge="1">
          <mxGeometry relative="1" as="geometry" />
        </mxCell>
        <mxCell id="AwLyOz3VwpFllKXNgGai-57" style="edgeStyle=orthogonalEdgeStyle;rounded=0;orthogonalLoop=1;jettySize=auto;html=1;" parent="1" source="AwLyOz3VwpFllKXNgGai-6" target="AwLyOz3VwpFllKXNgGai-54" edge="1">
          <mxGeometry relative="1" as="geometry" />
        </mxCell>
        <mxCell id="AwLyOz3VwpFllKXNgGai-59" style="edgeStyle=orthogonalEdgeStyle;rounded=0;orthogonalLoop=1;jettySize=auto;html=1;" parent="1" source="AwLyOz3VwpFllKXNgGai-6" target="AwLyOz3VwpFllKXNgGai-58" edge="1">
          <mxGeometry relative="1" as="geometry" />
        </mxCell>
        <mxCell id="AwLyOz3VwpFllKXNgGai-61" style="edgeStyle=orthogonalEdgeStyle;rounded=0;orthogonalLoop=1;jettySize=auto;html=1;" parent="1" source="AwLyOz3VwpFllKXNgGai-6" target="AwLyOz3VwpFllKXNgGai-60" edge="1">
          <mxGeometry relative="1" as="geometry" />
        </mxCell>
        <mxCell id="AwLyOz3VwpFllKXNgGai-6" value="&lt;span style=&quot;font-size: 20px;&quot;&gt;Home Screen&lt;/span&gt;" style="rounded=0;whiteSpace=wrap;html=1;fillColor=#f5f5f5;fontColor=#333333;strokeColor=#666666;" parent="1" vertex="1">
          <mxGeometry x="490" y="740" width="180" height="250" as="geometry" />
        </mxCell>
        <mxCell id="AwLyOz3VwpFllKXNgGai-30" style="edgeStyle=orthogonalEdgeStyle;rounded=0;orthogonalLoop=1;jettySize=auto;html=1;curved=1;" parent="1" source="AwLyOz3VwpFllKXNgGai-9" target="AwLyOz3VwpFllKXNgGai-4" edge="1">
          <mxGeometry relative="1" as="geometry" />
        </mxCell>
        <mxCell id="AwLyOz3VwpFllKXNgGai-31" value="when user clicks login" style="edgeLabel;html=1;align=center;verticalAlign=middle;resizable=0;points=[];" parent="AwLyOz3VwpFllKXNgGai-30" vertex="1" connectable="0">
          <mxGeometry x="-0.0633" y="-3" relative="1" as="geometry">
            <mxPoint as="offset" />
          </mxGeometry>
        </mxCell>
        <mxCell id="AwLyOz3VwpFllKXNgGai-36" style="edgeStyle=orthogonalEdgeStyle;rounded=0;orthogonalLoop=1;jettySize=auto;html=1;" parent="1" source="AwLyOz3VwpFllKXNgGai-9" target="AwLyOz3VwpFllKXNgGai-25" edge="1">
          <mxGeometry relative="1" as="geometry" />
        </mxCell>
        <mxCell id="AwLyOz3VwpFllKXNgGai-9" value="&lt;span style=&quot;font-size: 20px;&quot;&gt;Register Screen&lt;br&gt;&lt;br&gt;username, firstname, lastname,&amp;nbsp;&lt;br&gt;password,&lt;br&gt;confirm password&lt;br&gt;&lt;/span&gt;" style="rounded=0;whiteSpace=wrap;html=1;fillColor=#f5f5f5;fontColor=#333333;strokeColor=#666666;" parent="1" vertex="1">
          <mxGeometry x="1080" y="-870" width="180" height="250" as="geometry" />
        </mxCell>
        <mxCell id="AwLyOz3VwpFllKXNgGai-25" value="&lt;span style=&quot;font-size: 20px;&quot;&gt;Authentication Result Screen&lt;/span&gt;" style="rounded=0;whiteSpace=wrap;html=1;fillColor=#cdeb8b;strokeColor=#36393d;" parent="1" vertex="1">
          <mxGeometry x="1650" y="-910" width="180" height="250" as="geometry" />
        </mxCell>
        <mxCell id="AwLyOz3VwpFllKXNgGai-28" style="edgeStyle=orthogonalEdgeStyle;rounded=0;orthogonalLoop=1;jettySize=auto;html=1;exitX=0.5;exitY=0;exitDx=0;exitDy=0;curved=1;" parent="1" source="AwLyOz3VwpFllKXNgGai-26" target="AwLyOz3VwpFllKXNgGai-4" edge="1">
          <mxGeometry relative="1" as="geometry" />
        </mxCell>
        <mxCell id="AwLyOz3VwpFllKXNgGai-38" value="ForgetPassowrdFlow" style="swimlane;whiteSpace=wrap;html=1;startSize=50;" parent="1" vertex="1">
          <mxGeometry x="1180" y="-390" width="1220" height="850" as="geometry" />
        </mxCell>
        <mxCell id="AwLyOz3VwpFllKXNgGai-12" value="&lt;span style=&quot;font-size: 20px;&quot;&gt;Forget Password Screen&lt;/span&gt;" style="rounded=0;whiteSpace=wrap;html=1;fillColor=#f5f5f5;fontColor=#333333;strokeColor=#666666;" parent="AwLyOz3VwpFllKXNgGai-38" vertex="1">
          <mxGeometry x="90" y="560" width="180" height="250" as="geometry" />
        </mxCell>
        <mxCell id="AwLyOz3VwpFllKXNgGai-14" value="&lt;span style=&quot;font-size: 20px;&quot;&gt;Code Confirmation Screen&lt;/span&gt;" style="rounded=0;whiteSpace=wrap;html=1;fillColor=#f5f5f5;fontColor=#333333;strokeColor=#666666;" parent="AwLyOz3VwpFllKXNgGai-38" vertex="1">
          <mxGeometry x="90" y="190" width="180" height="250" as="geometry" />
        </mxCell>
        <mxCell id="AwLyOz3VwpFllKXNgGai-50" style="edgeStyle=orthogonalEdgeStyle;rounded=0;orthogonalLoop=1;jettySize=auto;html=1;" parent="AwLyOz3VwpFllKXNgGai-38" source="AwLyOz3VwpFllKXNgGai-16" target="AwLyOz3VwpFllKXNgGai-49" edge="1">
          <mxGeometry relative="1" as="geometry" />
        </mxCell>
        <mxCell id="AwLyOz3VwpFllKXNgGai-16" value="&lt;span style=&quot;font-size: 20px;&quot;&gt;Rest Password Screen&lt;/span&gt;" style="rounded=0;whiteSpace=wrap;html=1;fillColor=#f5f5f5;fontColor=#333333;strokeColor=#666666;" parent="AwLyOz3VwpFllKXNgGai-38" vertex="1">
          <mxGeometry x="600" y="240" width="180" height="250" as="geometry" />
        </mxCell>
        <mxCell id="AwLyOz3VwpFllKXNgGai-26" value="&lt;span style=&quot;font-size: 20px;&quot;&gt;Password Resetted Successfully&lt;/span&gt;" style="rounded=0;whiteSpace=wrap;html=1;fillColor=#cdeb8b;strokeColor=#36393d;" parent="AwLyOz3VwpFllKXNgGai-38" vertex="1">
          <mxGeometry x="970" y="130" width="180" height="250" as="geometry" />
        </mxCell>
        <mxCell id="AwLyOz3VwpFllKXNgGai-19" value="" style="edgeStyle=orthogonalEdgeStyle;rounded=0;orthogonalLoop=1;jettySize=auto;html=1;curved=1;" parent="AwLyOz3VwpFllKXNgGai-38" source="AwLyOz3VwpFllKXNgGai-12" target="AwLyOz3VwpFllKXNgGai-14" edge="1">
          <mxGeometry relative="1" as="geometry" />
        </mxCell>
        <mxCell id="AwLyOz3VwpFllKXNgGai-20" style="edgeStyle=orthogonalEdgeStyle;rounded=0;orthogonalLoop=1;jettySize=auto;html=1;curved=1;" parent="AwLyOz3VwpFllKXNgGai-38" source="AwLyOz3VwpFllKXNgGai-14" target="AwLyOz3VwpFllKXNgGai-16" edge="1">
          <mxGeometry relative="1" as="geometry" />
        </mxCell>
        <mxCell id="AwLyOz3VwpFllKXNgGai-21" value="when user enters the sent code correctly" style="edgeLabel;html=1;align=center;verticalAlign=middle;resizable=0;points=[];" parent="AwLyOz3VwpFllKXNgGai-20" vertex="1" connectable="0">
          <mxGeometry x="0.048" relative="1" as="geometry">
            <mxPoint as="offset" />
          </mxGeometry>
        </mxCell>
        <mxCell id="AwLyOz3VwpFllKXNgGai-27" value="" style="edgeStyle=orthogonalEdgeStyle;rounded=0;orthogonalLoop=1;jettySize=auto;html=1;curved=1;" parent="AwLyOz3VwpFllKXNgGai-38" source="AwLyOz3VwpFllKXNgGai-16" target="AwLyOz3VwpFllKXNgGai-26" edge="1">
          <mxGeometry relative="1" as="geometry" />
        </mxCell>
        <mxCell id="AwLyOz3VwpFllKXNgGai-29" value="when password matches the rules" style="edgeLabel;html=1;align=center;verticalAlign=middle;resizable=0;points=[];" parent="AwLyOz3VwpFllKXNgGai-27" vertex="1" connectable="0">
          <mxGeometry x="-0.1153" y="1" relative="1" as="geometry">
            <mxPoint y="1" as="offset" />
          </mxGeometry>
        </mxCell>
        <mxCell id="AwLyOz3VwpFllKXNgGai-49" value="&lt;span style=&quot;font-size: 20px;&quot;&gt;Password Failed To Reset&amp;nbsp;&lt;/span&gt;" style="rounded=0;whiteSpace=wrap;html=1;fillColor=#f8cecc;strokeColor=#b85450;" parent="AwLyOz3VwpFllKXNgGai-38" vertex="1">
          <mxGeometry x="970" y="390" width="180" height="250" as="geometry" />
        </mxCell>
        <mxCell id="AwLyOz3VwpFllKXNgGai-51" value="&lt;span style=&quot;font-size: 20px;&quot;&gt;Profile Screen&lt;/span&gt;" style="rounded=0;whiteSpace=wrap;html=1;fillColor=#f5f5f5;fontColor=#333333;strokeColor=#666666;" parent="1" vertex="1">
          <mxGeometry x="490" y="1070" width="180" height="250" as="geometry" />
        </mxCell>
        <mxCell id="AwLyOz3VwpFllKXNgGai-53" value="&lt;span style=&quot;font-size: 20px;&quot;&gt;Tasks Screen&lt;/span&gt;" style="rounded=0;whiteSpace=wrap;html=1;fillColor=#f5f5f5;fontColor=#333333;strokeColor=#666666;" parent="1" vertex="1">
          <mxGeometry x="690" y="1070" width="180" height="250" as="geometry" />
        </mxCell>
        <mxCell id="AwLyOz3VwpFllKXNgGai-54" value="&lt;span style=&quot;font-size: 20px;&quot;&gt;Projects Screen&lt;/span&gt;" style="rounded=0;whiteSpace=wrap;html=1;fillColor=#f5f5f5;fontColor=#333333;strokeColor=#666666;" parent="1" vertex="1">
          <mxGeometry x="890" y="1070" width="180" height="250" as="geometry" />
        </mxCell>
        <mxCell id="AwLyOz3VwpFllKXNgGai-58" value="&lt;span style=&quot;font-size: 20px;&quot;&gt;Project Details Screen&lt;/span&gt;" style="rounded=0;whiteSpace=wrap;html=1;fillColor=#f5f5f5;fontColor=#333333;strokeColor=#666666;" parent="1" vertex="1">
          <mxGeometry x="290" y="1070" width="180" height="250" as="geometry" />
        </mxCell>
        <mxCell id="AwLyOz3VwpFllKXNgGai-60" value="&lt;span style=&quot;font-size: 20px;&quot;&gt;Edit Project Screen&lt;/span&gt;" style="rounded=0;whiteSpace=wrap;html=1;fillColor=#f5f5f5;fontColor=#333333;strokeColor=#666666;" parent="1" vertex="1">
          <mxGeometry x="80" y="1070" width="180" height="250" as="geometry" />
        </mxCell>
      </root>
    </mxGraphModel>
  </diagram>
  <diagram id="h1jBJY3o2nKl_saInaCA" name="Page-2">
    <mxGraphModel dx="1167" dy="1799" grid="1" gridSize="10" guides="1" tooltips="1" connect="1" arrows="1" fold="1" page="1" pageScale="1" pageWidth="850" pageHeight="1100" background="none" math="0" shadow="0">
      <root>
        <mxCell id="0" />
        <mxCell id="1" parent="0" />
        <mxCell id="FsnHK8jJTfVlmb5xCs0P-1" value="Login" style="rounded=0;whiteSpace=wrap;html=1;" vertex="1" parent="1">
          <mxGeometry x="30" y="-990" width="120" height="60" as="geometry" />
        </mxCell>
        <mxCell id="FsnHK8jJTfVlmb5xCs0P-2" value="Register" style="rounded=0;whiteSpace=wrap;html=1;" vertex="1" parent="1">
          <mxGeometry x="30" y="-920" width="120" height="60" as="geometry" />
        </mxCell>
        <mxCell id="FsnHK8jJTfVlmb5xCs0P-3" value="Rest Password" style="rounded=0;whiteSpace=wrap;html=1;" vertex="1" parent="1">
          <mxGeometry x="30" y="-850" width="120" height="60" as="geometry" />
        </mxCell>
        <mxCell id="FsnHK8jJTfVlmb5xCs0P-4" value="see all projects" style="rounded=0;whiteSpace=wrap;html=1;" vertex="1" parent="1">
          <mxGeometry x="190" y="-990" width="120" height="60" as="geometry" />
        </mxCell>
        <mxCell id="FsnHK8jJTfVlmb5xCs0P-5" value="see project details" style="rounded=0;whiteSpace=wrap;html=1;" vertex="1" parent="1">
          <mxGeometry x="190" y="-920" width="120" height="60" as="geometry" />
        </mxCell>
        <mxCell id="FsnHK8jJTfVlmb5xCs0P-6" value="edit project" style="rounded=0;whiteSpace=wrap;html=1;" vertex="1" parent="1">
          <mxGeometry x="190" y="-850" width="120" height="60" as="geometry" />
        </mxCell>
        <mxCell id="FsnHK8jJTfVlmb5xCs0P-7" value="delete project" style="rounded=0;whiteSpace=wrap;html=1;" vertex="1" parent="1">
          <mxGeometry x="190" y="-775" width="120" height="60" as="geometry" />
        </mxCell>
        <mxCell id="FsnHK8jJTfVlmb5xCs0P-8" value="Create Project" style="rounded=0;whiteSpace=wrap;html=1;" vertex="1" parent="1">
          <mxGeometry x="190" y="-700" width="120" height="60" as="geometry" />
        </mxCell>
        <mxCell id="FsnHK8jJTfVlmb5xCs0P-9" value="create tasks ad assign them to project" style="rounded=0;whiteSpace=wrap;html=1;" vertex="1" parent="1">
          <mxGeometry x="340" y="-990" width="120" height="60" as="geometry" />
        </mxCell>
        <mxCell id="FsnHK8jJTfVlmb5xCs0P-10" value="delete task" style="rounded=0;whiteSpace=wrap;html=1;" vertex="1" parent="1">
          <mxGeometry x="340" y="-920" width="120" height="60" as="geometry" />
        </mxCell>
        <mxCell id="FsnHK8jJTfVlmb5xCs0P-11" value="change task status" style="rounded=0;whiteSpace=wrap;html=1;" vertex="1" parent="1">
          <mxGeometry x="340" y="-850" width="120" height="60" as="geometry" />
        </mxCell>
        <mxCell id="FsnHK8jJTfVlmb5xCs0P-12" value="change task status&lt;br&gt;DONE, READY, TODO" style="rounded=0;whiteSpace=wrap;html=1;" vertex="1" parent="1">
          <mxGeometry x="340" y="-775" width="120" height="60" as="geometry" />
        </mxCell>
        <mxCell id="FsnHK8jJTfVlmb5xCs0P-13" value="edit task" style="rounded=0;whiteSpace=wrap;html=1;" vertex="1" parent="1">
          <mxGeometry x="340" y="-700" width="120" height="60" as="geometry" />
        </mxCell>
        <mxCell id="FsnHK8jJTfVlmb5xCs0P-14" value="assign task to another project" style="rounded=0;whiteSpace=wrap;html=1;" vertex="1" parent="1">
          <mxGeometry x="340" y="-630" width="120" height="60" as="geometry" />
        </mxCell>
        <mxCell id="FsnHK8jJTfVlmb5xCs0P-15" value="remove task to different project" style="rounded=0;whiteSpace=wrap;html=1;" vertex="1" parent="1">
          <mxGeometry x="340" y="-560" width="120" height="60" as="geometry" />
        </mxCell>
        <mxCell id="FsnHK8jJTfVlmb5xCs0P-16" value="show profile screen" style="rounded=0;whiteSpace=wrap;html=1;" vertex="1" parent="1">
          <mxGeometry x="470" y="-990" width="120" height="60" as="geometry" />
        </mxCell>
        <mxCell id="FsnHK8jJTfVlmb5xCs0P-17" value="edit profile personal data" style="rounded=0;whiteSpace=wrap;html=1;" vertex="1" parent="1">
          <mxGeometry x="470" y="-920" width="120" height="60" as="geometry" />
        </mxCell>
        <mxCell id="FsnHK8jJTfVlmb5xCs0P-18" value="upload image" style="rounded=0;whiteSpace=wrap;html=1;" vertex="1" parent="1">
          <mxGeometry x="470" y="-850" width="120" height="60" as="geometry" />
        </mxCell>
        <mxCell id="FsnHK8jJTfVlmb5xCs0P-19" value="delete account" style="rounded=0;whiteSpace=wrap;html=1;" vertex="1" parent="1">
          <mxGeometry x="470" y="-775" width="120" height="60" as="geometry" />
        </mxCell>
        <mxCell id="FsnHK8jJTfVlmb5xCs0P-20" value="logout" style="rounded=0;whiteSpace=wrap;html=1;" vertex="1" parent="1">
          <mxGeometry x="470" y="-700" width="120" height="60" as="geometry" />
        </mxCell>
        <mxCell id="FsnHK8jJTfVlmb5xCs0P-23" value="" style="edgeStyle=orthogonalEdgeStyle;rounded=0;orthogonalLoop=1;jettySize=auto;html=1;" edge="1" parent="1" source="FsnHK8jJTfVlmb5xCs0P-21" target="FsnHK8jJTfVlmb5xCs0P-22">
          <mxGeometry relative="1" as="geometry" />
        </mxCell>
        <mxCell id="FsnHK8jJTfVlmb5xCs0P-21" value="MainActivity" style="rounded=0;whiteSpace=wrap;html=1;" vertex="1" parent="1">
          <mxGeometry x="1090" y="-980" width="120" height="60" as="geometry" />
        </mxCell>
        <mxCell id="FsnHK8jJTfVlmb5xCs0P-25" value="" style="edgeStyle=orthogonalEdgeStyle;rounded=0;orthogonalLoop=1;jettySize=auto;html=1;" edge="1" parent="1" source="FsnHK8jJTfVlmb5xCs0P-22" target="FsnHK8jJTfVlmb5xCs0P-24">
          <mxGeometry relative="1" as="geometry" />
        </mxCell>
        <mxCell id="FsnHK8jJTfVlmb5xCs0P-22" value="MainApp" style="rounded=0;whiteSpace=wrap;html=1;" vertex="1" parent="1">
          <mxGeometry x="1090" y="-840" width="120" height="60" as="geometry" />
        </mxCell>
        <mxCell id="FsnHK8jJTfVlmb5xCs0P-27" value="" style="edgeStyle=orthogonalEdgeStyle;rounded=0;orthogonalLoop=1;jettySize=auto;html=1;" edge="1" parent="1" source="FsnHK8jJTfVlmb5xCs0P-24" target="FsnHK8jJTfVlmb5xCs0P-26">
          <mxGeometry relative="1" as="geometry" />
        </mxCell>
        <mxCell id="FsnHK8jJTfVlmb5xCs0P-24" value="MainScreen" style="rounded=0;whiteSpace=wrap;html=1;" vertex="1" parent="1">
          <mxGeometry x="1090" y="-700" width="120" height="60" as="geometry" />
        </mxCell>
        <mxCell id="FsnHK8jJTfVlmb5xCs0P-30" value="" style="edgeStyle=orthogonalEdgeStyle;rounded=0;orthogonalLoop=1;jettySize=auto;html=1;" edge="1" parent="1" source="FsnHK8jJTfVlmb5xCs0P-26" target="FsnHK8jJTfVlmb5xCs0P-29">
          <mxGeometry relative="1" as="geometry" />
        </mxCell>
        <mxCell id="FsnHK8jJTfVlmb5xCs0P-26" value="MainViewModel" style="rounded=0;whiteSpace=wrap;html=1;" vertex="1" parent="1">
          <mxGeometry x="1090" y="-560" width="120" height="60" as="geometry" />
        </mxCell>
        <mxCell id="FsnHK8jJTfVlmb5xCs0P-29" value="MainUseCases" style="rounded=0;whiteSpace=wrap;html=1;" vertex="1" parent="1">
          <mxGeometry x="1090" y="-420" width="120" height="60" as="geometry" />
        </mxCell>
        <mxCell id="FsnHK8jJTfVlmb5xCs0P-31" value="MainUseCases" style="rounded=0;whiteSpace=wrap;html=1;" vertex="1" parent="1">
          <mxGeometry x="1100" y="-410" width="120" height="60" as="geometry" />
        </mxCell>
        <mxCell id="FsnHK8jJTfVlmb5xCs0P-32" value="MainUseCases" style="rounded=0;whiteSpace=wrap;html=1;" vertex="1" parent="1">
          <mxGeometry x="1110" y="-400" width="120" height="60" as="geometry" />
        </mxCell>
        <mxCell id="FsnHK8jJTfVlmb5xCs0P-33" value="MainUseCases" style="rounded=0;whiteSpace=wrap;html=1;" vertex="1" parent="1">
          <mxGeometry x="1120" y="-390" width="120" height="60" as="geometry" />
        </mxCell>
        <mxCell id="FsnHK8jJTfVlmb5xCs0P-36" value="" style="edgeStyle=orthogonalEdgeStyle;rounded=0;orthogonalLoop=1;jettySize=auto;html=1;" edge="1" parent="1" source="FsnHK8jJTfVlmb5xCs0P-34" target="FsnHK8jJTfVlmb5xCs0P-35">
          <mxGeometry relative="1" as="geometry" />
        </mxCell>
        <mxCell id="FsnHK8jJTfVlmb5xCs0P-34" value="MainUseCases" style="rounded=0;whiteSpace=wrap;html=1;" vertex="1" parent="1">
          <mxGeometry x="1130" y="-380" width="120" height="60" as="geometry" />
        </mxCell>
        <mxCell id="FsnHK8jJTfVlmb5xCs0P-38" value="" style="edgeStyle=orthogonalEdgeStyle;rounded=0;orthogonalLoop=1;jettySize=auto;html=1;" edge="1" parent="1" source="FsnHK8jJTfVlmb5xCs0P-35" target="FsnHK8jJTfVlmb5xCs0P-37">
          <mxGeometry relative="1" as="geometry" />
        </mxCell>
        <mxCell id="FsnHK8jJTfVlmb5xCs0P-35" value="MainRepository" style="rounded=0;whiteSpace=wrap;html=1;" vertex="1" parent="1">
          <mxGeometry x="1130" y="-240" width="120" height="60" as="geometry" />
        </mxCell>
        <mxCell id="FsnHK8jJTfVlmb5xCs0P-40" value="" style="edgeStyle=orthogonalEdgeStyle;rounded=0;orthogonalLoop=1;jettySize=auto;html=1;" edge="1" parent="1" source="FsnHK8jJTfVlmb5xCs0P-37" target="FsnHK8jJTfVlmb5xCs0P-39">
          <mxGeometry relative="1" as="geometry" />
        </mxCell>
        <mxCell id="FsnHK8jJTfVlmb5xCs0P-44" style="edgeStyle=orthogonalEdgeStyle;rounded=0;orthogonalLoop=1;jettySize=auto;html=1;" edge="1" parent="1" source="FsnHK8jJTfVlmb5xCs0P-37" target="FsnHK8jJTfVlmb5xCs0P-42">
          <mxGeometry relative="1" as="geometry" />
        </mxCell>
        <mxCell id="FsnHK8jJTfVlmb5xCs0P-45" style="edgeStyle=orthogonalEdgeStyle;rounded=0;orthogonalLoop=1;jettySize=auto;html=1;" edge="1" parent="1" source="FsnHK8jJTfVlmb5xCs0P-37" target="FsnHK8jJTfVlmb5xCs0P-43">
          <mxGeometry relative="1" as="geometry" />
        </mxCell>
        <mxCell id="FsnHK8jJTfVlmb5xCs0P-37" value="DataSource" style="rounded=0;whiteSpace=wrap;html=1;" vertex="1" parent="1">
          <mxGeometry x="1130" y="-100" width="120" height="60" as="geometry" />
        </mxCell>
        <mxCell id="FsnHK8jJTfVlmb5xCs0P-47" value="" style="edgeStyle=orthogonalEdgeStyle;rounded=0;orthogonalLoop=1;jettySize=auto;html=1;" edge="1" parent="1" source="FsnHK8jJTfVlmb5xCs0P-39" target="FsnHK8jJTfVlmb5xCs0P-46">
          <mxGeometry relative="1" as="geometry" />
        </mxCell>
        <mxCell id="FsnHK8jJTfVlmb5xCs0P-39" value="Online" style="rounded=0;whiteSpace=wrap;html=1;" vertex="1" parent="1">
          <mxGeometry x="1000" y="30" width="120" height="60" as="geometry" />
        </mxCell>
        <mxCell id="FsnHK8jJTfVlmb5xCs0P-55" value="" style="edgeStyle=orthogonalEdgeStyle;rounded=0;orthogonalLoop=1;jettySize=auto;html=1;" edge="1" parent="1" source="FsnHK8jJTfVlmb5xCs0P-42" target="FsnHK8jJTfVlmb5xCs0P-54">
          <mxGeometry relative="1" as="geometry" />
        </mxCell>
        <mxCell id="FsnHK8jJTfVlmb5xCs0P-42" value="Database" style="rounded=0;whiteSpace=wrap;html=1;" vertex="1" parent="1">
          <mxGeometry x="1130" y="30" width="120" height="60" as="geometry" />
        </mxCell>
        <mxCell id="FsnHK8jJTfVlmb5xCs0P-63" value="" style="edgeStyle=orthogonalEdgeStyle;rounded=0;orthogonalLoop=1;jettySize=auto;html=1;" edge="1" parent="1" source="FsnHK8jJTfVlmb5xCs0P-43" target="FsnHK8jJTfVlmb5xCs0P-62">
          <mxGeometry relative="1" as="geometry" />
        </mxCell>
        <mxCell id="FsnHK8jJTfVlmb5xCs0P-43" value="Offline" style="rounded=0;whiteSpace=wrap;html=1;" vertex="1" parent="1">
          <mxGeometry x="1260" y="30" width="120" height="60" as="geometry" />
        </mxCell>
        <mxCell id="FsnHK8jJTfVlmb5xCs0P-49" value="" style="edgeStyle=orthogonalEdgeStyle;rounded=0;orthogonalLoop=1;jettySize=auto;html=1;" edge="1" parent="1" source="FsnHK8jJTfVlmb5xCs0P-46" target="FsnHK8jJTfVlmb5xCs0P-48">
          <mxGeometry relative="1" as="geometry" />
        </mxCell>
        <mxCell id="FsnHK8jJTfVlmb5xCs0P-46" value="API" style="rounded=0;whiteSpace=wrap;html=1;" vertex="1" parent="1">
          <mxGeometry x="1000" y="170" width="120" height="60" as="geometry" />
        </mxCell>
        <mxCell id="FsnHK8jJTfVlmb5xCs0P-48" value="DTO" style="rounded=0;whiteSpace=wrap;html=1;" vertex="1" parent="1">
          <mxGeometry x="1000" y="310" width="120" height="60" as="geometry" />
        </mxCell>
        <mxCell id="FsnHK8jJTfVlmb5xCs0P-50" value="DTO" style="rounded=0;whiteSpace=wrap;html=1;" vertex="1" parent="1">
          <mxGeometry x="1010" y="320" width="120" height="60" as="geometry" />
        </mxCell>
        <mxCell id="FsnHK8jJTfVlmb5xCs0P-51" value="DTO" style="rounded=0;whiteSpace=wrap;html=1;" vertex="1" parent="1">
          <mxGeometry x="1020" y="330" width="120" height="60" as="geometry" />
        </mxCell>
        <mxCell id="FsnHK8jJTfVlmb5xCs0P-52" value="DTO" style="rounded=0;whiteSpace=wrap;html=1;" vertex="1" parent="1">
          <mxGeometry x="1030" y="340" width="120" height="60" as="geometry" />
        </mxCell>
        <mxCell id="FsnHK8jJTfVlmb5xCs0P-53" value="DTO" style="rounded=0;whiteSpace=wrap;html=1;" vertex="1" parent="1">
          <mxGeometry x="1040" y="350" width="120" height="60" as="geometry" />
        </mxCell>
        <mxCell id="FsnHK8jJTfVlmb5xCs0P-57" value="" style="edgeStyle=orthogonalEdgeStyle;rounded=0;orthogonalLoop=1;jettySize=auto;html=1;" edge="1" parent="1" source="FsnHK8jJTfVlmb5xCs0P-54" target="FsnHK8jJTfVlmb5xCs0P-56">
          <mxGeometry relative="1" as="geometry" />
        </mxCell>
        <mxCell id="FsnHK8jJTfVlmb5xCs0P-54" value="DAO" style="rounded=0;whiteSpace=wrap;html=1;" vertex="1" parent="1">
          <mxGeometry x="1130" y="170" width="120" height="60" as="geometry" />
        </mxCell>
        <mxCell id="FsnHK8jJTfVlmb5xCs0P-56" value="Entity" style="rounded=0;whiteSpace=wrap;html=1;" vertex="1" parent="1">
          <mxGeometry x="1180" y="320" width="120" height="60" as="geometry" />
        </mxCell>
        <mxCell id="FsnHK8jJTfVlmb5xCs0P-58" value="Entity" style="rounded=0;whiteSpace=wrap;html=1;" vertex="1" parent="1">
          <mxGeometry x="1190" y="330" width="120" height="60" as="geometry" />
        </mxCell>
        <mxCell id="FsnHK8jJTfVlmb5xCs0P-59" value="Entity" style="rounded=0;whiteSpace=wrap;html=1;" vertex="1" parent="1">
          <mxGeometry x="1200" y="340" width="120" height="60" as="geometry" />
        </mxCell>
        <mxCell id="FsnHK8jJTfVlmb5xCs0P-60" value="Entity" style="rounded=0;whiteSpace=wrap;html=1;" vertex="1" parent="1">
          <mxGeometry x="1210" y="350" width="120" height="60" as="geometry" />
        </mxCell>
        <mxCell id="FsnHK8jJTfVlmb5xCs0P-61" value="Entity" style="rounded=0;whiteSpace=wrap;html=1;" vertex="1" parent="1">
          <mxGeometry x="1220" y="360" width="120" height="60" as="geometry" />
        </mxCell>
        <mxCell id="FsnHK8jJTfVlmb5xCs0P-66" style="edgeStyle=orthogonalEdgeStyle;rounded=0;orthogonalLoop=1;jettySize=auto;html=1;" edge="1" parent="1" source="FsnHK8jJTfVlmb5xCs0P-62" target="FsnHK8jJTfVlmb5xCs0P-65">
          <mxGeometry relative="1" as="geometry" />
        </mxCell>
        <mxCell id="FsnHK8jJTfVlmb5xCs0P-62" value="Offline" style="rounded=0;whiteSpace=wrap;html=1;" vertex="1" parent="1">
          <mxGeometry x="1260" y="170" width="120" height="60" as="geometry" />
        </mxCell>
        <mxCell id="FsnHK8jJTfVlmb5xCs0P-65" value="DataStore" style="rounded=0;whiteSpace=wrap;html=1;" vertex="1" parent="1">
          <mxGeometry x="1380" y="270" width="120" height="60" as="geometry" />
        </mxCell>
      </root>
    </mxGraphModel>
  </diagram>
</mxfile>
